<svg width="30" height="31" viewBox="0 0 30 31" fill="none" xmlns="http://www.w3.org/2000/svg">
<path d="M22.9419 5.84814C21.9734 5.84814 21.1816 6.63983 21.1816 7.60839C21.1816 8.57695 21.9734 9.36863 22.9419 9.36863C23.9105 9.36863 24.7021 8.57695 24.7021 7.60839C24.7021 6.63983 23.9189 5.84814 22.9419 5.84814Z" fill="#090808"/>
<path d="M15.1245 8.10529C11.0482 8.10529 7.73828 11.4237 7.73828 15.4916C7.73828 19.568 11.0566 22.8779 15.1245 22.8779C19.2009 22.8779 22.5109 19.5595 22.5109 15.4916C22.5109 11.4237 19.2009 8.10529 15.1245 8.10529ZM15.1245 20.2333C12.5137 20.2333 10.3913 18.1109 10.3913 15.5C10.3913 12.8891 12.5137 10.7667 15.1245 10.7667C17.7354 10.7667 19.8578 12.8891 19.8578 15.5C19.8578 18.1025 17.7354 20.2333 15.1245 20.2333Z" fill="#090808"/>
<path d="M20.9882 30.5H9.01175C4.04263 30.5 0 26.4573 0 21.4882V9.51179C0 4.54267 4.04263 0.5 9.01175 0.5H20.9882C25.9573 0.5 30 4.54267 30 9.51179V21.4882C30 26.4573 25.9573 30.5 20.9882 30.5ZM9.01175 3.31302C5.60075 3.31302 2.82143 6.09237 2.82143 9.50337V21.4798C2.82143 24.8908 5.60075 27.6701 9.01175 27.6701H20.9882C24.3992 27.6701 27.1785 24.8908 27.1785 21.4798V9.50337C27.1785 6.09237 24.3992 3.31302 20.9882 3.31302H9.01175Z" fill="#090808"/>
</svg>
