<svg width="44" height="25" viewBox="0 0 44 25" fill="none" xmlns="http://www.w3.org/2000/svg">
<path d="M43.5855 22.5777C43.5324 22.4634 43.4829 22.3685 43.437 22.2926C42.6768 20.9233 41.224 19.2427 39.0795 17.2503L39.0342 17.2046L39.0115 17.1823L38.9886 17.1593H38.9655C37.9923 16.2315 37.3759 15.6077 37.1179 15.2883C36.6456 14.6799 36.5398 14.064 36.7979 13.44C36.9803 12.9686 37.6652 11.9729 38.8512 10.4517C39.475 9.64557 39.9691 8.99944 40.334 8.51264C42.9654 5.01431 44.1062 2.77882 43.7562 1.80531L43.6203 1.57782C43.529 1.44086 43.2932 1.31556 42.9134 1.20129C42.5328 1.08727 42.0462 1.06841 41.4529 1.1444L34.8826 1.18979C34.7762 1.15207 34.6242 1.15559 34.4262 1.20129C34.2284 1.247 34.1295 1.26994 34.1295 1.26994L34.0151 1.32707L33.9244 1.39571C33.8483 1.4411 33.7646 1.52092 33.6733 1.63503C33.5824 1.74874 33.5064 1.88218 33.4457 2.03425C32.7304 3.87459 31.9171 5.58564 31.0043 7.16733C30.4415 8.11047 29.9247 8.92784 29.4527 9.61992C28.9813 10.3118 28.5858 10.8215 28.2667 11.1482C27.9471 11.4753 27.6586 11.7373 27.3995 11.9352C27.1409 12.1332 26.9434 12.2169 26.8067 12.1863C26.6697 12.1557 26.5406 12.1253 26.4184 12.095C26.2056 11.958 26.0345 11.7717 25.9054 11.536C25.7758 11.3003 25.6886 11.0036 25.6429 10.6462C25.5975 10.2885 25.5707 9.98086 25.563 9.7222C25.5559 9.46386 25.5592 9.09844 25.5746 8.62699C25.5904 8.1553 25.5976 7.83615 25.5976 7.66882C25.5976 7.09077 25.6088 6.46342 25.6314 5.78661C25.6544 5.10979 25.6731 4.57354 25.6886 4.17848C25.7041 3.78302 25.7113 3.36462 25.7113 2.92353C25.7113 2.48245 25.6845 2.13653 25.6314 1.88546C25.579 1.63471 25.4985 1.39131 25.3925 1.15535C25.2858 0.919622 25.1297 0.737274 24.9248 0.607824C24.7195 0.478534 24.4643 0.375933 24.1606 0.299702C23.3544 0.117274 22.3278 0.0185883 21.0804 0.00324613C18.2516 -0.0271186 16.434 0.155549 15.6278 0.55101C15.3085 0.718095 15.0194 0.94639 14.761 1.23517C14.4872 1.56991 14.449 1.75257 14.6467 1.78262C15.5594 1.91934 16.2055 2.2464 16.5858 2.76348L16.7228 3.03748C16.8294 3.23517 16.9359 3.58517 17.0424 4.08698C17.1487 4.5888 17.2174 5.14391 17.2476 5.75201C17.3235 6.86248 17.3235 7.81306 17.2476 8.60382C17.1714 9.3949 17.0995 10.0107 17.0309 10.4518C16.9622 10.8929 16.8596 11.2503 16.7228 11.524C16.5858 11.7978 16.4946 11.9651 16.4489 12.0258C16.4033 12.0866 16.3652 12.1248 16.335 12.1399C16.1373 12.2156 15.9317 12.2542 15.7189 12.2542C15.5058 12.2542 15.2474 12.1476 14.9433 11.9346C14.6392 11.7216 14.3237 11.4289 13.9966 11.0562C13.6696 10.6835 13.3007 10.1626 12.8899 9.49342C12.4794 8.82428 12.0535 8.03344 11.6124 7.1209L11.2475 6.45911C11.0194 6.03336 10.7077 5.41344 10.3123 4.59991C9.91656 3.78605 9.56681 2.99881 9.26276 2.23833C9.14122 1.91894 8.95864 1.67578 8.71532 1.50846L8.60113 1.43982C8.52522 1.37909 8.40336 1.3146 8.23619 1.24588C8.06879 1.17724 7.89411 1.12802 7.71144 1.09773L1.46038 1.14312C0.821606 1.14312 0.388189 1.28783 0.159974 1.57686L0.0686403 1.71358C0.0230133 1.78973 0 1.91135 0 2.07876C0 2.24608 0.045627 2.45144 0.136961 2.6946C1.0495 4.83931 2.04187 6.90771 3.11406 8.90011C4.18626 10.8925 5.11798 12.4975 5.90866 13.7135C6.6995 14.9304 7.5056 16.0789 8.32697 17.1584C9.14833 18.2384 9.69202 18.9305 9.95803 19.2345C10.2244 19.5391 10.4336 19.7668 10.5856 19.9189L11.1561 20.4664C11.5211 20.8315 12.0571 21.2687 12.7644 21.7781C13.4718 22.2878 14.255 22.7897 15.1143 23.2844C15.9738 23.7783 16.9736 24.1813 18.1145 24.493C19.2552 24.8051 20.3654 24.9303 21.4453 24.8699H24.069C24.6011 24.8239 25.0042 24.6566 25.2782 24.3678L25.369 24.2535C25.4301 24.1627 25.4872 24.0217 25.5399 23.8319C25.5933 23.6418 25.6198 23.4324 25.6198 23.2045C25.6043 22.5507 25.654 21.9613 25.7678 21.4367C25.8815 20.9122 26.0112 20.5167 26.1561 20.2504C26.301 19.9843 26.4645 19.7597 26.6464 19.5777C26.8288 19.3953 26.9587 19.2848 27.0349 19.2467C27.1107 19.2085 27.1712 19.1825 27.2168 19.1669C27.5818 19.0453 28.0114 19.1631 28.5062 19.5208C29.0006 19.8782 29.4643 20.3196 29.898 20.8441C30.3315 21.3691 30.8523 21.9581 31.4606 22.6119C32.0692 23.2661 32.6014 23.7523 33.0575 24.0722L33.5136 24.3459C33.8182 24.5286 34.2137 24.6959 34.7005 24.848C35.1864 25 35.6122 25.038 35.9777 24.962L41.8179 24.8709C42.3956 24.8709 42.845 24.7753 43.1639 24.5855C43.4833 24.3954 43.6731 24.186 43.7343 23.9581C43.7954 23.7301 43.7986 23.4713 43.7459 23.1821C43.6918 22.8935 43.6385 22.6918 43.5855 22.5777Z" fill="#090808"/>
</svg>
