<svg width="34" height="33" viewBox="0 0 34 33" fill="none" xmlns="http://www.w3.org/2000/svg">
<path d="M0.817383 33L3.17915 24.1734C1.83618 21.7561 1.13231 19.0516 1.13231 16.3009C1.13231 7.31686 8.4399 0 17.4332 0C26.4172 0 33.734 7.3076 33.734 16.3009C33.734 25.2849 26.4264 32.6017 17.4332 32.6017C14.738 32.6017 12.0706 31.9164 9.69026 30.629L0.817383 33ZM10.1348 27.3132L10.6905 27.6466C12.7374 28.8692 15.0714 29.5175 17.4332 29.5175C24.7222 29.5175 30.6499 23.59 30.6499 16.3009C30.6499 9.01178 24.7222 3.0842 17.4332 3.0842C10.1441 3.0842 4.21647 9.01178 4.21647 16.3009C4.21647 18.709 4.88335 21.08 6.15222 23.1547L6.49491 23.7196L5.17047 28.6469L10.1348 27.3132Z" fill="#090808"/>
<path fill-rule="evenodd" clip-rule="evenodd" d="M23.5012 18.5701C22.8344 18.1719 21.9545 17.718 21.1672 18.0422C20.5652 18.2923 20.1762 19.237 19.7779 19.7279C19.5742 19.9779 19.3334 20.015 19.0277 19.8946C16.7493 18.9869 15.0081 17.468 13.7485 15.3748C13.5355 15.0506 13.5725 14.7913 13.8318 14.4949C14.2116 14.0503 14.684 13.5409 14.7858 12.9389C14.8877 12.3369 14.6098 11.633 14.3598 11.0958C14.0449 10.4104 13.6837 9.43793 12.9983 9.04893C12.3685 8.69698 11.5349 8.89149 10.9792 9.34532C10.0067 10.1326 9.54361 11.3737 9.55287 12.5962C9.55287 12.9482 9.59919 13.2909 9.68255 13.6243C9.87705 14.4301 10.2568 15.1896 10.6736 15.9027C10.9885 16.4399 11.3312 16.9678 11.7109 17.4772C12.9242 19.1351 14.4431 20.5707 16.1936 21.6451C17.0735 22.1823 18.009 22.6546 18.9907 22.9788C20.0836 23.34 21.0654 23.7197 22.2509 23.4974C23.492 23.2659 24.7146 22.4972 25.2054 21.3024C25.3536 20.9504 25.4277 20.5522 25.3443 20.1817C25.1684 19.4037 24.131 18.9406 23.5012 18.5701Z" fill="#090808"/>
</svg>
